<svg width="88" height="40" viewBox="0 0 88 40" fill="none" xmlns="http://www.w3.org/2000/svg">
<g clip-path="url(#clip0_961_35947)">
<path d="M78.3099 0L71.5776 19.6467L69.6384 0H63.2293L56.2277 20.0481L54.8276 0H35.7614L33.715 11.0244H41.255L42.2245 6.28952L47.9334 18.0921L38.0777 30.247L38.6701 25.583H25.5825L23.6434 36.4666H57.5744L64.63 17.1731L66.3532 36.4666H74.4856L87.1427 0H78.3099Z" fill="#D80B0B"/>
<path d="M29.2451 40H46.9646L47.9335 37.7388H29.6756L29.2451 40Z" fill="#D80B0B"/>
<path d="M31.8299 21.0597L33.0687 15.0526L22.6206 14.5586L21.3818 21.0597H31.8299Z" fill="#D80B0B"/>
<path d="M32.1533 6.00708H25.7442L24.9905 10.1762H31.4536L32.1533 6.00708Z" fill="#D80B0B"/>
<path d="M20.3582 10.1763H14.003L13.3026 14.0638H19.6045L20.3582 10.1763Z" fill="#D80B0B"/>
<path d="M8.77863 24.2399H15.8881L16.8307 19.7175H9.58692L8.77863 24.2399Z" fill="#D80B0B"/>
<path d="M4.47006 29.823H8.99407L9.47917 26.7844H5.0085L4.47006 29.823Z" fill="#D80B0B"/>
<path d="M12.3873 33.5689H20.7896L21.5972 28.3037H13.3029L12.3873 33.5689Z" fill="#D80B0B"/>
<path d="M16.1035 39.7167H20.7354L21.3818 36.749H16.8308L16.1035 39.7167Z" fill="#D80B0B"/>
<path d="M0.484463 19.4343L0 22.4029H4.14685L4.79322 19.4343H0.484463Z" fill="#D80B0B"/>
<path d="M10.5562 12.1204H6.35536L5.60168 15.3359H9.9098L10.5562 12.1204Z" fill="#D80B0B"/>
<path d="M22.4588 5.30054H19.0116L18.7424 7.70337H22.2435L22.4588 5.30054Z" fill="#D80B0B"/>
<path d="M32.6922 0H28.9759L28.5717 2.68527H32.1532L32.6922 0Z" fill="#D80B0B"/>
</g>
<defs>
<clipPath id="clip0_961_35947">
<rect width="87.1429" height="40" fill="white"/>
</clipPath>
</defs>
</svg>
